<svg width="240" height="239" viewBox="0 0 240 239" fill="none" xmlns="http://www.w3.org/2000/svg">
<g opacity="0.3" filter="url(#filter0_f_803_4668)">
<ellipse cx="119.847" cy="119.5" rx="104.847" ry="104.5" fill="url(#paint0_radial_803_4668)"/>
</g>
<g opacity="0.3" filter="url(#filter1_d_803_4668)">
<ellipse cx="118.911" cy="118.567" rx="51.4875" ry="51.317" fill="url(#paint1_radial_803_4668)"/>
</g>
<g opacity="0.2" filter="url(#filter2_d_803_4668)">
<ellipse cx="117.975" cy="117.634" rx="26.2118" ry="26.125" fill="url(#paint2_linear_803_4668)"/>
</g>
<g filter="url(#filter3_d_803_4668)">
<ellipse cx="117.974" cy="117.634" rx="14.9782" ry="14.9286" fill="url(#paint3_linear_803_4668)"/>
</g>
<path d="M122.355 114.589V120.24C122.355 121.23 121.447 122.035 120.33 122.035C119.218 122.035 118.304 121.23 118.304 120.24C118.304 119.255 119.218 118.45 120.33 118.45C120.886 118.45 121.571 118.071 121.571 117.514V117.053C121.571 116.447 121.001 116.003 120.414 116.151L117.129 116.979C116.685 117.091 116.374 117.491 116.374 117.949V121.205C116.374 122.195 115.46 123 114.348 123C113.231 123 112.322 122.195 112.322 121.205C112.322 120.22 113.231 119.415 114.348 119.415C114.905 119.415 115.584 119.039 115.584 118.482V115.374C115.584 114.639 116.086 114.069 116.882 113.879L120.143 113.089C120.804 112.929 121.362 112.984 121.757 113.254C122.158 113.519 122.355 113.969 122.355 114.589Z" fill="white"/>
<defs>
<filter id="filter0_f_803_4668" x="0" y="0" width="239.694" height="239" filterUnits="userSpaceOnUse" color-interpolation-filters="sRGB">
<feFlood flood-opacity="0" result="BackgroundImageFix"/>
<feBlend mode="normal" in="SourceGraphic" in2="BackgroundImageFix" result="shape"/>
<feGaussianBlur stdDeviation="7.5" result="effect1_foregroundBlur_803_4668"/>
</filter>
<filter id="filter1_d_803_4668" x="54.4238" y="61.25" width="128.975" height="128.634" filterUnits="userSpaceOnUse" color-interpolation-filters="sRGB">
<feFlood flood-opacity="0" result="BackgroundImageFix"/>
<feColorMatrix in="SourceAlpha" type="matrix" values="0 0 0 0 0 0 0 0 0 0 0 0 0 0 0 0 0 0 127 0" result="hardAlpha"/>
<feOffset dy="7"/>
<feGaussianBlur stdDeviation="6.5"/>
<feColorMatrix type="matrix" values="0 0 0 0 0.105882 0 0 0 0 0.0980392 0 0 0 0 0.25098 0 0 0 1 0"/>
<feBlend mode="normal" in2="BackgroundImageFix" result="effect1_dropShadow_803_4668"/>
<feBlend mode="normal" in="SourceGraphic" in2="effect1_dropShadow_803_4668" result="shape"/>
</filter>
<filter id="filter2_d_803_4668" x="76.7637" y="78.5088" width="82.4238" height="82.25" filterUnits="userSpaceOnUse" color-interpolation-filters="sRGB">
<feFlood flood-opacity="0" result="BackgroundImageFix"/>
<feColorMatrix in="SourceAlpha" type="matrix" values="0 0 0 0 0 0 0 0 0 0 0 0 0 0 0 0 0 0 127 0" result="hardAlpha"/>
<feOffset dy="2"/>
<feGaussianBlur stdDeviation="7.5"/>
<feColorMatrix type="matrix" values="0 0 0 0 0.109804 0 0 0 0 0.101961 0 0 0 0 0.254902 0 0 0 0.43784 0"/>
<feBlend mode="normal" in2="BackgroundImageFix" result="effect1_dropShadow_803_4668"/>
<feBlend mode="normal" in="SourceGraphic" in2="effect1_dropShadow_803_4668" result="shape"/>
</filter>
<filter id="filter3_d_803_4668" x="87.9961" y="89.7051" width="59.9561" height="59.8569" filterUnits="userSpaceOnUse" color-interpolation-filters="sRGB">
<feFlood flood-opacity="0" result="BackgroundImageFix"/>
<feColorMatrix in="SourceAlpha" type="matrix" values="0 0 0 0 0 0 0 0 0 0 0 0 0 0 0 0 0 0 127 0" result="hardAlpha"/>
<feOffset dy="2"/>
<feGaussianBlur stdDeviation="7.5"/>
<feColorMatrix type="matrix" values="0 0 0 0 0.109804 0 0 0 0 0.101961 0 0 0 0 0.254902 0 0 0 0.43784 0"/>
<feBlend mode="normal" in2="BackgroundImageFix" result="effect1_dropShadow_803_4668"/>
<feBlend mode="normal" in="SourceGraphic" in2="effect1_dropShadow_803_4668" result="shape"/>
</filter>
<radialGradient id="paint0_radial_803_4668" cx="0" cy="0" r="1" gradientTransform="matrix(128.298 69.6968 -69.9283 127.873 119.847 119.5)" gradientUnits="userSpaceOnUse">
<stop stop-color="#0555F2"/>
<stop offset="1" stop-color="#0555F2" stop-opacity="0.01"/>
</radialGradient>
<radialGradient id="paint1_radial_803_4668" cx="0" cy="0" r="1" gradientTransform="matrix(51.4875 30.908 -31.0107 51.317 118.911 118.567)" gradientUnits="userSpaceOnUse">
<stop stop-color="#0555F2"/>
<stop offset="1" stop-color="#0555F2" stop-opacity="0.01"/>
</radialGradient>
<linearGradient id="paint2_linear_803_4668" x1="65.5519" y1="117.634" x2="117.802" y2="170.057" gradientUnits="userSpaceOnUse">
<stop stop-color="#0555F2"/>
<stop offset="1" stop-color="#6D9FFF"/>
</linearGradient>
<linearGradient id="paint3_linear_803_4668" x1="88.0179" y1="117.634" x2="117.875" y2="147.59" gradientUnits="userSpaceOnUse">
<stop stop-color="#6F9FFF"/>
<stop offset="1" stop-color="#0555F2"/>
</linearGradient>
</defs>
</svg>
