<svg width="24" height="24" viewBox="0 0 24 24" fill="none" xmlns="http://www.w3.org/2000/svg">
<g clip-path="url(#clip0_493_2526)">
<path d="M9.30649 3.4381C10.0798 0.728292 13.9202 0.728292 14.6935 3.4381C15.1084 4.89172 16.6018 5.75395 18.0681 5.3864C20.8015 4.70123 22.7217 8.02706 20.7616 10.0517C19.7101 11.1378 19.7101 12.8622 20.7616 13.9483C22.7217 15.9729 20.8015 19.2988 18.0681 18.6136C16.6018 18.2461 15.1084 19.1083 14.6935 20.5619C13.9202 23.2717 10.0798 23.2717 9.30649 20.5619C8.89165 19.1083 7.39823 18.2461 5.93193 18.6136C3.1985 19.2988 1.27833 15.9729 3.23842 13.9483C4.28988 12.8622 4.28988 11.1378 3.23842 10.0517C1.27833 8.02706 3.1985 4.70123 5.93193 5.3864C7.39823 5.75395 8.89165 4.89172 9.30649 3.4381Z" fill="url(#paint0_linear_493_2526)"/>
<path d="M8 12.6923L10.8235 15L16 10" stroke="white" stroke-width="1.5" stroke-linecap="round" stroke-linejoin="round"/>
</g>
<defs>
<linearGradient id="paint0_linear_493_2526" x1="-24" y1="12" x2="12" y2="48" gradientUnits="userSpaceOnUse">
<stop stop-color="#5BFF89"/>
<stop offset="1" stop-color="#137802"/>
</linearGradient>
<clipPath id="clip0_493_2526">
<rect width="24" height="24" fill="white"/>
</clipPath>
</defs>
</svg>
